<svg xmlns="http://www.w3.org/2000/svg" xmlns:xlink="http://www.w3.org/1999/xlink" xmlns:lucid="lucid" width="1208" height="291.6"><g transform="translate(-108 -311.77730056318774)" lucid:page-tab-id="0_0"><path d="M616 400h160v120H616z" stroke="#000" stroke-width="2" fill="#fff"/><use xlink:href="#a" transform="matrix(1,0,0,1,621,405) translate(39.55 59.0875)"/><path d="M128 400h160v120H128z" stroke="#000" stroke-width="2" fill="#fff"/><use xlink:href="#b" transform="matrix(1,0,0,1,133,405) translate(38.55 59.0875)"/><path d="M1136 400h160v120h-160z" stroke="#000" stroke-width="2" fill="#fff"/><use xlink:href="#c" transform="matrix(1,0,0,1,1141,405) translate(39.05 59.0875)"/><path d="M1077.84 330.34l11.5.96 8.72 1.1 6.98 1.17 5.77 1.22 4.9 1.24 4.24 1.28 3.7 1.3 3.3 1.3 2.97 1.3 2.68 1.34 2.44 1.34 2.23 1.35 2.06 1.37 1.93 1.4 1.78 1.4 1.67 1.44 1.57 1.47 1.47 1.5 1.4 1.55 1.32 1.6 1.25 1.63 1.18 1.72 1.13 1.77 1.07 1.84 1 1.94.97 2.04.9 2.16.86 2.3.8 2.43.72 2.63.67 2.83.58 3.06.5 3.35.38 3.68.25 4.08.08 3.55-2 .04-.07-3.5-.26-4-.38-3.6-.48-3.26-.57-3-.63-2.73-.7-2.54-.78-2.37-.83-2.22-.88-2.07-.93-1.96-.98-1.87-1.03-1.78-1.08-1.7-1.15-1.63-1.2-1.6-1.26-1.52-1.35-1.48-1.4-1.44-1.5-1.42-1.62-1.38-1.7-1.36-1.86-1.34-2-1.32-2.15-1.3-2.37-1.3-2.6-1.3-2.87-1.28-3.22-1.27-3.64-1.28-4.15-1.25-4.82-1.23-5.7-1.2-6.88-1.17-8.63-1.08-11.43-.96-16.78-.68-11.67.05v-2l11.7-.04zm-255.98 16.5l-10.22 2.67-8.25 2.54-6.78 2.4-5.63 2.25-4.75 2.12-4.03 2.02-3.46 1.93-3 1.83-2.6 1.75-2.3 1.68-2.02 1.6-1.8 1.57-1.58 1.52-1.43 1.46-1.27 1.44-1.15 1.4-1.03 1.37-.93 1.35-.84 1.34-.4.7-1.75-.98.43-.76.9-1.4.97-1.44 1.08-1.44 1.2-1.46 1.34-1.5 1.48-1.53 1.66-1.58 1.86-1.6 2.1-1.68 2.35-1.73 2.7-1.8 3.05-1.86 3.54-1.97 4.1-2.06 4.8-2.16 5.72-2.28 6.85-2.42 8.33-2.55 10.3-2.7 2.4-.52h9.45z"/><path d="M1162.78 399h-2l-.02-1 2-.05zM761.8 383.25l-8.1 12.62-.86-14.98z"/><path d="M763.4 382.64L752.86 399l-1.1-19.42zm-8.9 10.1l5.72-8.87-6.3-1.66z"/><use xlink:href="#d" transform="matrix(1,0,0,1,819.4466851609001,322.77730056318774) translate(0 14.4)"/><use xlink:href="#e" transform="matrix(1,0,0,1,819.4466851609001,322.77730056318774) translate(56 14.4)"/><use xlink:href="#f" transform="matrix(1,0,0,1,819.4466851609001,322.77730056318774) translate(147.85000000000002 14.4)"/><use xlink:href="#g" transform="matrix(1,0,0,1,819.4466851609001,322.77730056318774) translate(173.8 14.4)"/><path d="M846.58 461H795.5v-2h51.08zm287.42 0h-118.57v-2H1134z"/><path d="M1135 461h-1.03v-2h1.03zM794.5 464.64L780.24 460l14.26-4.64z"/><path d="M795.5 466l-18.5-6 18.5-6zm-12.03-6l10.03 3.26v-6.52z"/><use xlink:href="#h" transform="matrix(1,0,0,1,846.5774592271182,449.2) translate(0 14.4)"/><use xlink:href="#i" transform="matrix(1,0,0,1,846.5774592271182,449.2) translate(93.9 14.4)"/><use xlink:href="#j" transform="matrix(1,0,0,1,846.5774592271182,449.2) translate(113.9 14.4)"/><path d="M824.1 502.97H778v-2h46.1zm292.4 0h-28.6v-2h28.6z"/><path d="M778.03 502.97H777v-2h1.03zM1131.76 501.97l-14.26 4.64v-9.26z"/><path d="M1135 501.97l-18.5 6.02v-12.04zm-16.5 3.26l10.03-3.26-10.03-3.26z"/><use xlink:href="#d" transform="matrix(1,0,0,1,824.1,491.173336914039) translate(0 14.4)"/><use xlink:href="#k" transform="matrix(1,0,0,1,824.1,491.173336914039) translate(56 14.4)"/><use xlink:href="#l" transform="matrix(1,0,0,1,824.1,491.173336914039) translate(96 14.4)"/><use xlink:href="#m" transform="matrix(1,0,0,1,824.1,491.173336914039) translate(168.9 14.4)"/><use xlink:href="#n" transform="matrix(1,0,0,1,824.1,491.173336914039) translate(187.85 14.4)"/><use xlink:href="#o" transform="matrix(1,0,0,1,824.1,491.173336914039) translate(217.85 14.4)"/><path d="M380.55 461H290v-2h90.55zm215.95 0h-73.05v-2h73.05z"/><path d="M290.03 461H289v-2h1.03zM611.76 460l-14.26 4.64v-9.28z"/><path d="M615 460l-18.5 6v-12zm-16.5 3.26l10.03-3.26-10.03-3.26z"/><use xlink:href="#d" transform="matrix(1,0,0,1,380.55,449.2) translate(0 14.4)"/><use xlink:href="#p" transform="matrix(1,0,0,1,380.55,449.2) translate(56 14.4)"/><use xlink:href="#q" transform="matrix(1,0,0,1,380.55,449.2) translate(107.9 14.4)"/><path d="M359.1 426.17h-51.6v-2h51.6zm254.9 0h-69.1v-2H614z"/><path d="M615 426.17h-1.03v-2H615zM306.5 429.8l-14.26-4.63 14.26-4.64z"/><path d="M307.5 431.18l-18.5-6 18.5-6.02zm-12.03-6l10.03 3.25v-6.52z"/><use xlink:href="#d" transform="matrix(1,0,0,1,359.1,414.36867334249206) translate(0 14.4)"/><use xlink:href="#r" transform="matrix(1,0,0,1,359.1,414.36867334249206) translate(56 14.4)"/><use xlink:href="#s" transform="matrix(1,0,0,1,359.1,414.36867334249206) translate(94.95 14.4)"/><path d="M327.6 504.34H290v-2h37.6zm268.9 0h-20.1v-2h20.1z"/><path d="M290.03 504.34H289v-2h1.03zM611.76 503.34l-14.26 4.64v-9.27z"/><path d="M615 503.34l-18.5 6.02v-12.03zm-16.5 3.26l10.03-3.26-10.03-3.25z"/><g><use xlink:href="#d" transform="matrix(1,0,0,1,327.6,492.5448487635309) translate(0 14.4)"/><use xlink:href="#r" transform="matrix(1,0,0,1,327.6,492.5448487635309) translate(56 14.4)"/><use xlink:href="#t" transform="matrix(1,0,0,1,327.6,492.5448487635309) translate(94.95 14.4)"/></g><path d="M881.15 413.13H778v-2h103.15zm235.35 0h-85.65v-2h85.65z"/><path d="M778.03 413.13H777v-2h1.03zM1131.76 412.13l-14.26 4.63v-9.27z"/><path d="M1135 412.13l-18.5 6v-12zm-16.5 3.26l10.03-3.27-10.03-3.26z"/><g><use xlink:href="#u" transform="matrix(1,0,0,1,881.15,401.32888478750107) translate(0 14.4)"/><use xlink:href="#v" transform="matrix(1,0,0,1,881.15,401.32888478750107) translate(64.85000000000001 14.4)"/><use xlink:href="#w" transform="matrix(1,0,0,1,881.15,401.32888478750107) translate(101.75000000000001 14.4)"/></g><path d="M1147.7 522.02l-.05 2.65-.2 3.36-.33 3.1-.42 2.85-.5 2.67-.6 2.5-.65 2.35-.72 2.23-.8 2.1-.84 2.03-.92 1.93-.97 1.85-1.02 1.8-1.1 1.72-1.18 1.7-1.24 1.63-1.33 1.6-1.42 1.6-1.5 1.54-1.64 1.53-1.76 1.5-1.9 1.5-2.05 1.5-2.24 1.5-2.45 1.5-2.72 1.48-3 1.5-3.4 1.5-3.82 1.5-4.4 1.54-5.1 1.53-6.05 1.55-7.37 1.56-9.32 1.57-12.53 1.58-19.42 1.6-81.03 3.26-28.9.94-23.5-.23-19.3-1-15.9-1.48-13.13-1.8-10.98-1.95-9.25-2.06-7.87-2.1-6.75-2.12-5.85-2.1-5.1-2.08-4.48-2.04-3.96-2.02-3.52-1.98-3.15-1.95-2.82-1.9-2.54-1.9-2.3-1.87-2.1-1.85-1.92-1.83-1.75-1.82-1.6-1.82-1.48-1.8-1.35-1.83-1.24-1.82-1.14-1.83-1.05-1.85-.95-1.87-.87-1.9-.8-1.94-.4-1.14 1.88-.68.4 1.1.76 1.86.84 1.82.9 1.8 1.02 1.78 1.1 1.76 1.18 1.75 1.3 1.74 1.42 1.75 1.54 1.74 1.7 1.76 1.84 1.78 2.04 1.8 2.24 1.8 2.48 1.85 2.76 1.87 3.07 1.9 3.44 1.94 3.88 1.97 4.4 2.03 5.02 2.04 5.77 2.07 6.7 2.1 7.78 2.07 9.18 2.06 10.9 1.95 13.05 1.8 15.8 1.47 19.22.98 23.43.23 28.85-.94 81-3.27 19.32-1.58 12.45-1.57 9.23-1.55 7.3-1.55 5.97-1.53 5.03-1.5 4.3-1.5 3.76-1.5 3.3-1.47 2.95-1.46 2.65-1.45 2.4-1.44 2.16-1.44 2-1.45 1.83-1.46 1.7-1.46 1.56-1.47 1.45-1.48 1.36-1.52 1.3-1.54 1.2-1.58 1.1-1.6 1.07-1.68 1-1.72.92-1.78.86-1.86.82-1.94.76-2.03.7-2.15.63-2.27.56-2.4.5-2.6.4-2.78.32-3 .2-3.28.06-2.62z"/><path d="M1147.7 522.05l-2-.04.03-1h2zM781.1 537.5l-9.16 1.53 2.24-14.84z"/><path d="M782.6 538.27l-11.85 1.97 2.9-19.24zm-9.46-.46l6.43-1.06-4.86-9.36z"/><g><use xlink:href="#d" transform="matrix(1,0,0,1,875.7871358663513,565.3822487500013) translate(0 14.4)"/><use xlink:href="#k" transform="matrix(1,0,0,1,875.7871358663513,565.3822487500013) translate(56 14.4)"/><use xlink:href="#i" transform="matrix(1,0,0,1,875.7871358663513,565.3822487500013) translate(96 14.4)"/><use xlink:href="#j" transform="matrix(1,0,0,1,875.7871358663513,565.3822487500013) translate(116 14.4)"/></g><defs><path d="M240 0l2-218c-23 76-54 145-80 218h-23L58-218 59 0H30v-248h44l77 211c21-75 51-140 76-211h43V0h-30" id="x"/><path d="M141-36C126-15 110 5 73 4 37 3 15-17 15-53c-1-64 63-63 125-63 3-35-9-54-41-54-24 1-41 7-42 31l-33-3c5-37 33-52 76-52 45 0 72 20 72 64v82c-1 20 7 32 28 27v20c-31 9-61-2-59-35zM48-53c0 20 12 33 32 33 41-3 63-29 60-74-43 2-92-5-92 41" id="y"/><path d="M117-194c89-4 53 116 60 194h-32v-121c0-31-8-49-39-48C34-167 62-67 57 0H25l-1-190h30c1 10-1 24 2 32 11-22 29-35 61-36" id="z"/><path d="M177-190C167-65 218 103 67 71c-23-6-38-20-44-43l32-5c15 47 100 32 89-28v-30C133-14 115 1 83 1 29 1 15-40 15-95c0-56 16-97 71-98 29-1 48 16 59 35 1-10 0-23 2-32h30zM94-22c36 0 50-32 50-73 0-42-14-75-50-75-39 0-46 34-46 75s6 73 46 73" id="A"/><path d="M100-194c63 0 86 42 84 106H49c0 40 14 67 53 68 26 1 43-12 49-29l28 8c-11 28-37 45-77 45C44 4 14-33 15-96c1-61 26-98 85-98zm52 81c6-60-76-77-97-28-3 7-6 17-6 28h103" id="B"/><path d="M114-163C36-179 61-72 57 0H25l-1-190h30c1 12-1 29 2 39 6-27 23-49 58-41v29" id="C"/><g id="a"><use transform="matrix(0.05,0,0,0.05,0,0)" xlink:href="#x"/><use transform="matrix(0.05,0,0,0.05,14.950000000000001,0)" xlink:href="#y"/><use transform="matrix(0.05,0,0,0.05,24.950000000000003,0)" xlink:href="#z"/><use transform="matrix(0.05,0,0,0.05,34.95,0)" xlink:href="#y"/><use transform="matrix(0.05,0,0,0.05,44.95,0)" xlink:href="#A"/><use transform="matrix(0.05,0,0,0.05,54.95,0)" xlink:href="#B"/><use transform="matrix(0.05,0,0,0.05,64.95,0)" xlink:href="#C"/></g><path d="M30-248c87 1 191-15 191 75 0 78-77 80-158 76V0H30v-248zm33 125c57 0 124 11 124-50 0-59-68-47-124-48v98" id="D"/><path d="M100-194c62-1 85 37 85 99 1 63-27 99-86 99S16-35 15-95c0-66 28-99 85-99zM99-20c44 1 53-31 53-75 0-43-8-75-51-75s-53 32-53 75 10 74 51 75" id="E"/><path d="M85-194c31 0 48 13 60 33l-1-100h32l1 261h-30c-2-10 0-23-3-31C134-8 116 4 85 4 32 4 16-35 15-94c0-66 23-100 70-100zm9 24c-40 0-46 34-46 75 0 40 6 74 45 74 42 0 51-32 51-76 0-42-9-74-50-73" id="F"/><path d="M84 4C-5 8 30-112 23-190h32v120c0 31 7 50 39 49 72-2 45-101 50-169h31l1 190h-30c-1-10 1-25-2-33-11 22-28 36-60 37" id="G"/><path d="M96-169c-40 0-48 33-48 73s9 75 48 75c24 0 41-14 43-38l32 2c-6 37-31 61-74 61-59 0-76-41-82-99-10-93 101-131 147-64 4 7 5 14 7 22l-32 3c-4-21-16-35-41-35" id="H"/><g id="b"><use transform="matrix(0.05,0,0,0.05,0,0)" xlink:href="#D"/><use transform="matrix(0.05,0,0,0.05,12,0)" xlink:href="#C"/><use transform="matrix(0.05,0,0,0.05,17.95,0)" xlink:href="#E"/><use transform="matrix(0.05,0,0,0.05,27.950000000000003,0)" xlink:href="#F"/><use transform="matrix(0.05,0,0,0.05,37.95,0)" xlink:href="#G"/><use transform="matrix(0.05,0,0,0.05,47.95,0)" xlink:href="#H"/><use transform="matrix(0.05,0,0,0.05,56.95,0)" xlink:href="#B"/><use transform="matrix(0.05,0,0,0.05,66.95,0)" xlink:href="#C"/></g><path d="M63-220v92h138v28H63V0H30v-248h175v28H63" id="I"/><path d="M59-47c-2 24 18 29 38 22v24C64 9 27 4 27-40v-127H5v-23h24l9-43h21v43h35v23H59v120" id="J"/><g id="c"><use transform="matrix(0.05,0,0,0.05,0,0)" xlink:href="#I"/><use transform="matrix(0.05,0,0,0.05,10.950000000000001,0)" xlink:href="#C"/><use transform="matrix(0.05,0,0,0.05,16.900000000000002,0)" xlink:href="#E"/><use transform="matrix(0.05,0,0,0.05,26.900000000000002,0)" xlink:href="#z"/><use transform="matrix(0.05,0,0,0.05,36.900000000000006,0)" xlink:href="#J"/><use transform="matrix(0.05,0,0,0.05,41.900000000000006,0)" xlink:href="#B"/><use transform="matrix(0.05,0,0,0.05,51.900000000000006,0)" xlink:href="#z"/><use transform="matrix(0.05,0,0,0.05,61.900000000000006,0)" xlink:href="#F"/></g><path d="M185-189c-5-48-123-54-124 2 14 75 158 14 163 119 3 78-121 87-175 55-17-10-28-26-33-46l33-7c5 56 141 63 141-1 0-78-155-14-162-118-5-82 145-84 179-34 5 7 8 16 11 25" id="K"/><path d="M135-143c-3-34-86-38-87 0 15 53 115 12 119 90S17 21 10-45l28-5c4 36 97 45 98 0-10-56-113-15-118-90-4-57 82-63 122-42 12 7 21 19 24 35" id="L"/><g id="d"><use transform="matrix(0.05,0,0,0.05,0,0)" xlink:href="#K"/><use transform="matrix(0.05,0,0,0.05,12,0)" xlink:href="#B"/><use transform="matrix(0.05,0,0,0.05,22,0)" xlink:href="#z"/><use transform="matrix(0.05,0,0,0.05,32,0)" xlink:href="#F"/><use transform="matrix(0.05,0,0,0.05,42,0)" xlink:href="#L"/></g><path d="M24-231v-30h32v30H24zM24 0v-190h32V0H24" id="M"/><path d="M24 0v-261h32V0H24" id="N"/><g id="e"><use transform="matrix(0.05,0,0,0.05,0,0)" xlink:href="#H"/><use transform="matrix(0.05,0,0,0.05,9,0)" xlink:href="#C"/><use transform="matrix(0.05,0,0,0.05,14.949999999999998,0)" xlink:href="#B"/><use transform="matrix(0.05,0,0,0.05,24.95,0)" xlink:href="#F"/><use transform="matrix(0.05,0,0,0.05,34.95,0)" xlink:href="#B"/><use transform="matrix(0.05,0,0,0.05,44.95,0)" xlink:href="#z"/><use transform="matrix(0.05,0,0,0.05,54.95,0)" xlink:href="#J"/><use transform="matrix(0.05,0,0,0.05,59.95,0)" xlink:href="#M"/><use transform="matrix(0.05,0,0,0.05,63.900000000000006,0)" xlink:href="#y"/><use transform="matrix(0.05,0,0,0.05,73.9,0)" xlink:href="#N"/><use transform="matrix(0.05,0,0,0.05,77.85000000000001,0)" xlink:href="#L"/></g><path d="M101-234c-31-9-42 10-38 44h38v23H63V0H32v-167H5v-23h27c-7-52 17-82 69-68v24" id="O"/><g id="f"><use transform="matrix(0.05,0,0,0.05,0,0)" xlink:href="#O"/><use transform="matrix(0.05,0,0,0.05,5,0)" xlink:href="#E"/><use transform="matrix(0.05,0,0,0.05,15,0)" xlink:href="#C"/></g><g id="g"><use transform="matrix(0.05,0,0,0.05,0,0)" xlink:href="#y"/><use transform="matrix(0.05,0,0,0.05,10,0)" xlink:href="#H"/><use transform="matrix(0.05,0,0,0.05,19,0)" xlink:href="#H"/><use transform="matrix(0.05,0,0,0.05,28,0)" xlink:href="#B"/><use transform="matrix(0.05,0,0,0.05,38,0)" xlink:href="#L"/><use transform="matrix(0.05,0,0,0.05,47,0)" xlink:href="#L"/></g><path d="M115-194c53 0 69 39 70 98 0 66-23 100-70 100C84 3 66-7 56-30L54 0H23l1-261h32v101c10-23 28-34 59-34zm-8 174c40 0 45-34 45-75 0-40-5-75-45-74-42 0-51 32-51 76 0 43 10 73 51 73" id="P"/><g id="h"><use transform="matrix(0.05,0,0,0.05,0,0)" xlink:href="#K"/><use transform="matrix(0.05,0,0,0.05,12,0)" xlink:href="#G"/><use transform="matrix(0.05,0,0,0.05,22,0)" xlink:href="#P"/><use transform="matrix(0.05,0,0,0.05,32,0)" xlink:href="#L"/><use transform="matrix(0.05,0,0,0.05,41,0)" xlink:href="#H"/><use transform="matrix(0.05,0,0,0.05,50,0)" xlink:href="#C"/><use transform="matrix(0.05,0,0,0.05,55.95,0)" xlink:href="#M"/><use transform="matrix(0.05,0,0,0.05,59.900000000000006,0)" xlink:href="#P"/><use transform="matrix(0.05,0,0,0.05,69.9,0)" xlink:href="#B"/><use transform="matrix(0.05,0,0,0.05,79.9,0)" xlink:href="#L"/></g><g id="i"><use transform="matrix(0.05,0,0,0.05,0,0)" xlink:href="#J"/><use transform="matrix(0.05,0,0,0.05,5,0)" xlink:href="#E"/></g><path d="M115-194c55 1 70 41 70 98S169 2 115 4C84 4 66-9 55-30l1 105H24l-1-265h31l2 30c10-21 28-34 59-34zm-8 174c40 0 45-34 45-75s-6-73-45-74c-42 0-51 32-51 76 0 43 10 73 51 73" id="Q"/><g id="j"><use transform="matrix(0.05,0,0,0.05,0,0)" xlink:href="#A"/><use transform="matrix(0.05,0,0,0.05,10,0)" xlink:href="#C"/><use transform="matrix(0.05,0,0,0.05,15.949999999999998,0)" xlink:href="#E"/><use transform="matrix(0.05,0,0,0.05,25.950000000000003,0)" xlink:href="#G"/><use transform="matrix(0.05,0,0,0.05,35.95,0)" xlink:href="#Q"/><use transform="matrix(0.05,0,0,0.05,45.95,0)" xlink:href="#L"/></g><g id="k"><use transform="matrix(0.05,0,0,0.05,0,0)" xlink:href="#F"/><use transform="matrix(0.05,0,0,0.05,10,0)" xlink:href="#y"/><use transform="matrix(0.05,0,0,0.05,20,0)" xlink:href="#J"/><use transform="matrix(0.05,0,0,0.05,25,0)" xlink:href="#y"/></g><path d="M108 0H70L1-190h34L89-25l56-165h34" id="R"/><g id="l"><use transform="matrix(0.05,0,0,0.05,0,0)" xlink:href="#C"/><use transform="matrix(0.05,0,0,0.05,5.95,0)" xlink:href="#B"/><use transform="matrix(0.05,0,0,0.05,15.949999999999998,0)" xlink:href="#H"/><use transform="matrix(0.05,0,0,0.05,24.95,0)" xlink:href="#B"/><use transform="matrix(0.05,0,0,0.05,34.95,0)" xlink:href="#M"/><use transform="matrix(0.05,0,0,0.05,38.900000000000006,0)" xlink:href="#R"/><use transform="matrix(0.05,0,0,0.05,47.900000000000006,0)" xlink:href="#B"/><use transform="matrix(0.05,0,0,0.05,57.900000000000006,0)" xlink:href="#F"/></g><g id="m"><use transform="matrix(0.05,0,0,0.05,0,0)" xlink:href="#M"/><use transform="matrix(0.05,0,0,0.05,3.95,0)" xlink:href="#z"/></g><path d="M106-169C34-169 62-67 57 0H25v-261h32l-1 103c12-21 28-36 61-36 89 0 53 116 60 194h-32v-121c2-32-8-49-39-48" id="S"/><g id="n"><use transform="matrix(0.05,0,0,0.05,0,0)" xlink:href="#J"/><use transform="matrix(0.05,0,0,0.05,5,0)" xlink:href="#S"/><use transform="matrix(0.05,0,0,0.05,15,0)" xlink:href="#B"/></g><g id="o"><use transform="matrix(0.05,0,0,0.05,0,0)" xlink:href="#A"/><use transform="matrix(0.05,0,0,0.05,10,0)" xlink:href="#C"/><use transform="matrix(0.05,0,0,0.05,15.949999999999998,0)" xlink:href="#E"/><use transform="matrix(0.05,0,0,0.05,25.950000000000003,0)" xlink:href="#G"/><use transform="matrix(0.05,0,0,0.05,35.95,0)" xlink:href="#Q"/></g><path d="M212-179c-10-28-35-45-73-45-59 0-87 40-87 99 0 60 29 101 89 101 43 0 62-24 78-52l27 14C228-24 195 4 139 4 59 4 22-46 18-125c-6-104 99-153 187-111 19 9 31 26 39 46" id="T"/><g id="p"><use transform="matrix(0.05,0,0,0.05,0,0)" xlink:href="#T"/><use transform="matrix(0.05,0,0,0.05,12.950000000000001,0)" xlink:href="#K"/><use transform="matrix(0.05,0,0,0.05,24.950000000000003,0)" xlink:href="#T"/><use transform="matrix(0.05,0,0,0.05,37.900000000000006,0)" xlink:href="#L"/></g><g id="q"><use transform="matrix(0.05,0,0,0.05,0,0)" xlink:href="#F"/><use transform="matrix(0.05,0,0,0.05,10,0)" xlink:href="#y"/><use transform="matrix(0.05,0,0,0.05,20,0)" xlink:href="#J"/><use transform="matrix(0.05,0,0,0.05,25,0)" xlink:href="#y"/></g><path d="M210-169c-67 3-38 105-44 169h-31v-121c0-29-5-50-35-48C34-165 62-65 56 0H25l-1-190h30c1 10-1 24 2 32 10-44 99-50 107 0 11-21 27-35 58-36 85-2 47 119 55 194h-31v-121c0-29-5-49-35-48" id="U"/><g id="r"><use transform="matrix(0.05,0,0,0.05,0,0)" xlink:href="#H"/><use transform="matrix(0.05,0,0,0.05,9,0)" xlink:href="#U"/><use transform="matrix(0.05,0,0,0.05,23.950000000000003,0)" xlink:href="#F"/></g><g id="s"><use transform="matrix(0.05,0,0,0.05,0,0)" xlink:href="#Q"/><use transform="matrix(0.05,0,0,0.05,10,0)" xlink:href="#y"/><use transform="matrix(0.05,0,0,0.05,20,0)" xlink:href="#C"/><use transform="matrix(0.05,0,0,0.05,25.950000000000003,0)" xlink:href="#y"/><use transform="matrix(0.05,0,0,0.05,35.95,0)" xlink:href="#U"/><use transform="matrix(0.05,0,0,0.05,50.900000000000006,0)" xlink:href="#B"/><use transform="matrix(0.05,0,0,0.05,60.900000000000006,0)" xlink:href="#J"/><use transform="matrix(0.05,0,0,0.05,65.9,0)" xlink:href="#B"/><use transform="matrix(0.05,0,0,0.05,75.9,0)" xlink:href="#C"/><use transform="matrix(0.05,0,0,0.05,81.85000000000001,0)" xlink:href="#L"/></g><path d="M143 0L79-87 56-68V0H24v-261h32v163l83-92h37l-77 82L181 0h-38" id="V"/><path d="M206 0h-36l-40-164L89 0H53L-1-190h32L70-26l43-164h34l41 164 42-164h31" id="W"/><g id="t"><use transform="matrix(0.05,0,0,0.05,0,0)" xlink:href="#y"/><use transform="matrix(0.05,0,0,0.05,10,0)" xlink:href="#H"/><use transform="matrix(0.05,0,0,0.05,19,0)" xlink:href="#V"/><use transform="matrix(0.05,0,0,0.05,28,0)" xlink:href="#z"/><use transform="matrix(0.05,0,0,0.05,38,0)" xlink:href="#E"/><use transform="matrix(0.05,0,0,0.05,48,0)" xlink:href="#W"/><use transform="matrix(0.05,0,0,0.05,60.95,0)" xlink:href="#N"/><use transform="matrix(0.05,0,0,0.05,64.9,0)" xlink:href="#B"/><use transform="matrix(0.05,0,0,0.05,74.9,0)" xlink:href="#F"/><use transform="matrix(0.05,0,0,0.05,84.9,0)" xlink:href="#A"/><use transform="matrix(0.05,0,0,0.05,94.9,0)" xlink:href="#B"/><use transform="matrix(0.05,0,0,0.05,104.9,0)" xlink:href="#U"/><use transform="matrix(0.05,0,0,0.05,119.85000000000001,0)" xlink:href="#B"/><use transform="matrix(0.05,0,0,0.05,129.85000000000002,0)" xlink:href="#z"/><use transform="matrix(0.05,0,0,0.05,139.85000000000002,0)" xlink:href="#J"/><use transform="matrix(0.05,0,0,0.05,144.85000000000002,0)" xlink:href="#L"/></g><path d="M233-177c-1 41-23 64-60 70L243 0h-38l-65-103H63V0H30v-248c88 3 205-21 203 71zM63-129c60-2 137 13 137-47 0-61-80-42-137-45v92" id="X"/><g id="u"><use transform="matrix(0.05,0,0,0.05,0,0)" xlink:href="#X"/><use transform="matrix(0.05,0,0,0.05,12.950000000000001,0)" xlink:href="#B"/><use transform="matrix(0.05,0,0,0.05,22.950000000000003,0)" xlink:href="#Q"/><use transform="matrix(0.05,0,0,0.05,32.95,0)" xlink:href="#N"/><use transform="matrix(0.05,0,0,0.05,36.900000000000006,0)" xlink:href="#M"/><use transform="matrix(0.05,0,0,0.05,40.85000000000001,0)" xlink:href="#B"/><use transform="matrix(0.05,0,0,0.05,50.85000000000001,0)" xlink:href="#L"/></g><g id="v"><use transform="matrix(0.05,0,0,0.05,0,0)" xlink:href="#W"/><use transform="matrix(0.05,0,0,0.05,12.950000000000001,0)" xlink:href="#M"/><use transform="matrix(0.05,0,0,0.05,16.900000000000002,0)" xlink:href="#J"/><use transform="matrix(0.05,0,0,0.05,21.900000000000002,0)" xlink:href="#S"/></g><path d="M127-220V0H93v-220H8v-28h204v28h-85" id="Y"/><g id="w"><use transform="matrix(0.05,0,0,0.05,0,0)" xlink:href="#Y"/><use transform="matrix(0.05,0,0,0.05,8.950000000000001,0)" xlink:href="#E"/><use transform="matrix(0.05,0,0,0.05,18.950000000000003,0)" xlink:href="#V"/><use transform="matrix(0.05,0,0,0.05,27.950000000000003,0)" xlink:href="#B"/><use transform="matrix(0.05,0,0,0.05,37.95,0)" xlink:href="#z"/></g></defs></g></svg>